<svg width="104" height="19" viewBox="0 0 104 19" fill="none" xmlns="http://www.w3.org/2000/svg">
<path d="M18.2393 18.0117H15.2861L13.5049 8.75391L10.0479 18.2344H8.95801L5.50098 8.75391L3.64941 18.0117H0.708008L4.16504 0.832031H5.78223L9.49707 12.3984L13.1299 0.832031H14.7354L18.2393 18.0117ZM27.251 10.957V18H24.2041V10.957L18.415 0.832031H21.6494L25.7158 8.15625L29.7939 0.832031H33.0166L27.251 10.957Z" fill="#7177F1"/>
<path d="M47.9814 18.2344H46.751L44.8877 7.75781L39.3213 18.2344H38.0908L35.665 0.832031H38.7705L40.0713 11.2383L45.4854 0.832031H46.8096L48.4033 11.168L53.4189 0.832031H56.7236L47.9814 18.2344ZM56.4775 11.6133C56.4775 8.55859 57.3096 5.94922 58.9736 3.78516C60.6455 1.61328 62.8174 0.527344 65.4893 0.527344C67.5439 0.527344 69.126 1.07422 70.2354 2.16797C71.3447 3.25391 71.8994 4.82812 71.8994 6.89062C71.8994 10.2734 71.0479 13.0195 69.3447 15.1289C67.6416 17.2383 65.3096 18.293 62.3486 18.293C60.5361 18.293 59.1025 17.6836 58.0479 16.4648C57.001 15.2383 56.4775 13.6211 56.4775 11.6133ZM59.6416 11.2969C59.6416 12.6172 59.9033 13.668 60.4268 14.4492C60.9502 15.2305 61.7158 15.6211 62.7236 15.6211C64.583 15.6211 66.0518 14.7852 67.1299 13.1133C68.208 11.4414 68.7471 9.44531 68.7471 7.125C68.7471 4.5 67.5908 3.1875 65.2783 3.1875C63.6533 3.1875 62.3057 4.04688 61.2354 5.76562C60.1729 7.48438 59.6416 9.32812 59.6416 11.2969ZM82.0713 10.3945L85.9033 18H82.4697L79.1885 10.8984C78.6572 10.8906 78.0049 10.8594 77.2314 10.8047L75.9072 18H72.7666L75.9072 0.832031C78.1885 0.714844 79.6846 0.65625 80.3955 0.65625C82.2471 0.65625 83.708 1.01563 84.7783 1.73438C85.8564 2.44531 86.3955 3.47656 86.3955 4.82812C86.3955 6.20312 86.001 7.39844 85.2119 8.41406C84.4307 9.42188 83.3838 10.082 82.0713 10.3945ZM78.5674 3.46875L77.6885 8.27344C78.1494 8.32031 78.5596 8.34375 78.9189 8.34375C81.8721 8.34375 83.3486 7.40625 83.3486 5.53125C83.3486 4.74219 83.0635 4.18359 82.4932 3.85547C81.9307 3.51953 80.9932 3.35156 79.6807 3.35156C79.5713 3.35156 79.2002 3.39062 78.5674 3.46875ZM96.6963 8.37891L100.962 18H97.5283L94.3174 10.6641L91.8799 13.3477L91.0127 18H87.9658L91.1182 0.832031H94.165L92.7471 8.63672L99.8721 0.832031H103.481L96.6963 8.37891Z" fill="#EBEBEB"/>
</svg>
